<?xml version="1.0" encoding="UTF-8"?>
<!DOCTYPE svg PUBLIC "-//W3C//DTD SVG 1.1//EN" "http://www.w3.org/Graphics/SVG/1.1/DTD/svg11.dtd">
<svg xmlns="http://www.w3.org/2000/svg" version="1.1" width="138px" height="136px" style="shape-rendering:geometricPrecision; text-rendering:geometricPrecision; image-rendering:optimizeQuality; fill-rule:evenodd; clip-rule:evenodd" xmlns:xlink="http://www.w3.org/1999/xlink">
<g><path style="opacity:0.991" fill="#ffca31" d="M 75.5,-0.5 C 79.5,-0.5 83.5,-0.5 87.5,-0.5C 96.0154,2.35937 103.182,7.35937 109,14.5C 116.425,24.7643 123.258,35.431 129.5,46.5C 118.816,53.8413 107.149,59.0079 94.5,62C 85.9165,63.1879 77.9165,61.5212 70.5,57C 56.2686,46.3802 40.9353,37.5468 24.5,30.5C 29.9139,28.2841 35.5806,27.1174 41.5,27C 61.0287,24.826 80.0287,26.9927 98.5,33.5C 99.5268,34.8478 100.86,35.3478 102.5,35C 101.307,33.9054 99.9733,33.072 98.5,32.5C 84.4775,24.9097 69.4775,20.5764 53.5,19.5C 47.1667,18.8333 40.8333,18.1667 34.5,17.5C 47.3503,9.57338 61.0169,3.57338 75.5,-0.5 Z"/></g>
<g><path style="opacity:0.282" fill="#ffe7a1" d="M 34.5,17.5 C 40.8333,18.1667 47.1667,18.8333 53.5,19.5C 46.1591,19.6663 38.8258,19.4997 31.5,19C 32.5266,18.4867 33.5266,17.9867 34.5,17.5 Z"/></g>
<g><path style="opacity:1" fill="#ffefc2" d="M 98.5,32.5 C 99.9733,33.072 101.307,33.9054 102.5,35C 100.86,35.3478 99.5268,34.8478 98.5,33.5C 98.5,33.1667 98.5,32.8333 98.5,32.5 Z"/></g>
<g><path style="opacity:0.999" fill="#ffa216" d="M -0.5,91.5 C -0.5,87.1667 -0.5,82.8333 -0.5,78.5C 4.30543,62.8854 11.3054,48.2188 20.5,34.5C 34.2664,41.1213 45.7664,50.4546 55,62.5C 56.3989,65.3634 57.3989,68.3634 58,71.5C 58.2548,83.3312 58.0881,95.1646 57.5,107C 57.35,115.591 58.0166,124.091 59.5,132.5C 58.9984,133.521 58.3317,133.688 57.5,133C 39.4789,113.651 28.3122,90.8176 24,64.5C 23.7405,89.3873 30.9072,111.887 45.5,132C 31.1372,125.679 18.3039,116.846 7,105.5C 3.67822,101.185 1.17822,96.5184 -0.5,91.5 Z"/></g>
<g><path style="opacity:0.998" fill="#ff7412" d="M 135.5,66.5 C 136.482,69.9619 136.815,73.6286 136.5,77.5C 137.412,92.2966 134.579,106.297 128,119.5C 123.961,124.875 118.794,128.709 112.5,131C 103.15,133.309 93.8166,134.809 84.5,135.5C 77.8333,135.5 71.1667,135.5 64.5,135.5C 62.6192,119.495 65.1192,104.162 72,89.5C 81.613,80.2699 92.7796,73.4366 105.5,69C 114.556,63.3114 123.223,57.8114 131.5,52.5C 123.361,77.4705 110.028,98.4705 91.5,115.5C 111.117,103.553 125.784,87.2192 135.5,66.5 Z"/></g>
<g><path style="opacity:0.008" fill="#ffddc3" d="M 137.5,64.5 C 137.5,68.8333 137.5,73.1667 137.5,77.5C 137.167,77.5 136.833,77.5 136.5,77.5C 136.815,73.6286 136.482,69.9619 135.5,66.5C 135.833,65.5 136.5,64.8333 137.5,64.5 Z"/></g>
<g><path style="opacity:1" fill="#ffbf8f" d="M 89.5,115.5 C 88.9476,117.609 87.6142,118.442 85.5,118C 86.6934,116.905 88.0267,116.072 89.5,115.5 Z"/></g>
</svg>
